<mxfile host="app.diagrams.net" modified="2023-02-11T19:49:11.124Z" agent="5.0 (Macintosh; Intel Mac OS X 10_15_7) AppleWebKit/605.1.15 (KHTML, like Gecko) Version/14.1.1 Safari/605.1.15" etag="F73ZzS0Y0NA0xwmacvRV" version="20.8.20" type="github">
  <diagram name="Page-1" id="FaiYo3VfVypyQkwJXVoq">
    <mxGraphModel dx="2074" dy="2197" grid="0" gridSize="10" guides="1" tooltips="1" connect="1" arrows="1" fold="1" page="0" pageScale="1" pageWidth="827" pageHeight="1169" background="none" math="0" shadow="0">
      <root>
        <mxCell id="0" />
        <mxCell id="1" parent="0" />
        <mxCell id="ZzfddEjBBQgfaQ5Hms3C-117" style="rounded=0;orthogonalLoop=1;jettySize=auto;html=1;fontSize=12;startSize=8;endSize=8;" edge="1" parent="1" source="ZzfddEjBBQgfaQ5Hms3C-78" target="ZzfddEjBBQgfaQ5Hms3C-86">
          <mxGeometry relative="1" as="geometry" />
        </mxCell>
        <mxCell id="ZzfddEjBBQgfaQ5Hms3C-124" value="/login or /sign-up" style="edgeLabel;html=1;align=center;verticalAlign=middle;resizable=0;points=[];fontSize=16;" vertex="1" connectable="0" parent="ZzfddEjBBQgfaQ5Hms3C-117">
          <mxGeometry x="-0.132" relative="1" as="geometry">
            <mxPoint as="offset" />
          </mxGeometry>
        </mxCell>
        <mxCell id="ZzfddEjBBQgfaQ5Hms3C-122" style="edgeStyle=none;rounded=0;orthogonalLoop=1;jettySize=auto;html=1;entryX=-0.008;entryY=0.4;entryDx=0;entryDy=0;entryPerimeter=0;fontSize=12;startSize=8;endSize=8;" edge="1" parent="1" source="ZzfddEjBBQgfaQ5Hms3C-78" target="ZzfddEjBBQgfaQ5Hms3C-120">
          <mxGeometry relative="1" as="geometry" />
        </mxCell>
        <mxCell id="ZzfddEjBBQgfaQ5Hms3C-126" value="/wss" style="edgeLabel;html=1;align=center;verticalAlign=middle;resizable=0;points=[];fontSize=16;" vertex="1" connectable="0" parent="ZzfddEjBBQgfaQ5Hms3C-122">
          <mxGeometry x="0.4157" y="-1" relative="1" as="geometry">
            <mxPoint as="offset" />
          </mxGeometry>
        </mxCell>
        <mxCell id="ZzfddEjBBQgfaQ5Hms3C-78" value="User A" style="outlineConnect=0;dashed=0;verticalLabelPosition=bottom;verticalAlign=top;align=center;html=1;shape=mxgraph.aws3.mobile_client;fillColor=#D2D3D3;gradientColor=none;fontSize=16;" vertex="1" parent="1">
          <mxGeometry x="-108" y="-855" width="40.5" height="63" as="geometry" />
        </mxCell>
        <mxCell id="ZzfddEjBBQgfaQ5Hms3C-118" style="edgeStyle=none;rounded=0;orthogonalLoop=1;jettySize=auto;html=1;fontSize=12;startSize=8;endSize=8;" edge="1" parent="1" source="ZzfddEjBBQgfaQ5Hms3C-79" target="ZzfddEjBBQgfaQ5Hms3C-86">
          <mxGeometry relative="1" as="geometry" />
        </mxCell>
        <mxCell id="ZzfddEjBBQgfaQ5Hms3C-123" style="edgeStyle=none;rounded=0;orthogonalLoop=1;jettySize=auto;html=1;entryX=0;entryY=0.5;entryDx=0;entryDy=0;fontSize=12;startSize=8;endSize=8;" edge="1" parent="1" source="ZzfddEjBBQgfaQ5Hms3C-79" target="ZzfddEjBBQgfaQ5Hms3C-121">
          <mxGeometry relative="1" as="geometry" />
        </mxCell>
        <mxCell id="ZzfddEjBBQgfaQ5Hms3C-127" value="/wss" style="edgeLabel;html=1;align=center;verticalAlign=middle;resizable=0;points=[];fontSize=16;" vertex="1" connectable="0" parent="ZzfddEjBBQgfaQ5Hms3C-123">
          <mxGeometry x="0.129" y="2" relative="1" as="geometry">
            <mxPoint as="offset" />
          </mxGeometry>
        </mxCell>
        <mxCell id="ZzfddEjBBQgfaQ5Hms3C-79" value="User B" style="outlineConnect=0;dashed=0;verticalLabelPosition=bottom;verticalAlign=top;align=center;html=1;shape=mxgraph.aws3.mobile_client;fillColor=#D2D3D3;gradientColor=none;fontSize=16;" vertex="1" parent="1">
          <mxGeometry x="-112" y="-523" width="40.5" height="63" as="geometry" />
        </mxCell>
        <mxCell id="ZzfddEjBBQgfaQ5Hms3C-98" style="edgeStyle=none;curved=1;rounded=0;orthogonalLoop=1;jettySize=auto;html=1;entryX=0;entryY=0.5;entryDx=0;entryDy=0;fontSize=12;startSize=8;endSize=8;" edge="1" parent="1" source="ZzfddEjBBQgfaQ5Hms3C-86" target="ZzfddEjBBQgfaQ5Hms3C-89">
          <mxGeometry relative="1" as="geometry" />
        </mxCell>
        <mxCell id="ZzfddEjBBQgfaQ5Hms3C-108" value="/login" style="edgeLabel;html=1;align=center;verticalAlign=middle;resizable=0;points=[];fontSize=16;" vertex="1" connectable="0" parent="ZzfddEjBBQgfaQ5Hms3C-98">
          <mxGeometry x="-0.1237" y="-1" relative="1" as="geometry">
            <mxPoint as="offset" />
          </mxGeometry>
        </mxCell>
        <mxCell id="ZzfddEjBBQgfaQ5Hms3C-107" style="edgeStyle=none;curved=1;rounded=0;orthogonalLoop=1;jettySize=auto;html=1;entryX=0;entryY=0.5;entryDx=0;entryDy=0;fontSize=12;startSize=8;endSize=8;" edge="1" parent="1" source="ZzfddEjBBQgfaQ5Hms3C-86" target="ZzfddEjBBQgfaQ5Hms3C-92">
          <mxGeometry relative="1" as="geometry" />
        </mxCell>
        <mxCell id="ZzfddEjBBQgfaQ5Hms3C-109" value="/sign-up" style="edgeLabel;html=1;align=center;verticalAlign=middle;resizable=0;points=[];fontSize=16;" vertex="1" connectable="0" parent="ZzfddEjBBQgfaQ5Hms3C-107">
          <mxGeometry x="-0.3721" y="-1" relative="1" as="geometry">
            <mxPoint x="46" y="6" as="offset" />
          </mxGeometry>
        </mxCell>
        <mxCell id="ZzfddEjBBQgfaQ5Hms3C-86" value="API Gateway" style="outlineConnect=0;dashed=0;verticalLabelPosition=bottom;verticalAlign=top;align=center;html=1;shape=mxgraph.aws3.api_gateway;fillColor=#D9A741;gradientColor=none;fontSize=16;" vertex="1" parent="1">
          <mxGeometry x="232" y="-779.01" width="76.5" height="93" as="geometry" />
        </mxCell>
        <mxCell id="ZzfddEjBBQgfaQ5Hms3C-89" value="" style="rounded=0;whiteSpace=wrap;html=1;fontSize=16;" vertex="1" parent="1">
          <mxGeometry x="637.6800000000001" y="-855" width="120" height="60" as="geometry" />
        </mxCell>
        <mxCell id="ZzfddEjBBQgfaQ5Hms3C-90" value="" style="rounded=0;whiteSpace=wrap;html=1;fontSize=16;" vertex="1" parent="1">
          <mxGeometry x="647.6800000000001" y="-845" width="120" height="60" as="geometry" />
        </mxCell>
        <mxCell id="ZzfddEjBBQgfaQ5Hms3C-106" style="edgeStyle=orthogonalEdgeStyle;rounded=0;orthogonalLoop=1;jettySize=auto;html=1;entryX=0;entryY=0.75;entryDx=0;entryDy=0;fontSize=12;startSize=8;endSize=8;" edge="1" parent="1" source="ZzfddEjBBQgfaQ5Hms3C-91" target="ZzfddEjBBQgfaQ5Hms3C-102">
          <mxGeometry relative="1" as="geometry" />
        </mxCell>
        <mxCell id="ZzfddEjBBQgfaQ5Hms3C-119" value="/find-ws-server" style="edgeLabel;html=1;align=center;verticalAlign=middle;resizable=0;points=[];fontSize=16;" vertex="1" connectable="0" parent="ZzfddEjBBQgfaQ5Hms3C-106">
          <mxGeometry x="-0.2326" y="3" relative="1" as="geometry">
            <mxPoint x="27" as="offset" />
          </mxGeometry>
        </mxCell>
        <mxCell id="ZzfddEjBBQgfaQ5Hms3C-91" value="Auth Service" style="rounded=0;whiteSpace=wrap;html=1;fontSize=16;" vertex="1" parent="1">
          <mxGeometry x="657.6800000000001" y="-835" width="120" height="60" as="geometry" />
        </mxCell>
        <mxCell id="ZzfddEjBBQgfaQ5Hms3C-92" value="" style="rounded=0;whiteSpace=wrap;html=1;fontSize=16;" vertex="1" parent="1">
          <mxGeometry x="642.6800000000001" y="-698" width="120" height="60" as="geometry" />
        </mxCell>
        <mxCell id="ZzfddEjBBQgfaQ5Hms3C-93" value="" style="rounded=0;whiteSpace=wrap;html=1;fontSize=16;" vertex="1" parent="1">
          <mxGeometry x="652.6800000000001" y="-688" width="120" height="60" as="geometry" />
        </mxCell>
        <mxCell id="ZzfddEjBBQgfaQ5Hms3C-170" style="edgeStyle=orthogonalEdgeStyle;rounded=0;orthogonalLoop=1;jettySize=auto;html=1;entryX=0;entryY=0.5;entryDx=0;entryDy=0;entryPerimeter=0;fontSize=12;startSize=8;endSize=8;" edge="1" parent="1" source="ZzfddEjBBQgfaQ5Hms3C-94" target="ZzfddEjBBQgfaQ5Hms3C-169">
          <mxGeometry relative="1" as="geometry" />
        </mxCell>
        <mxCell id="ZzfddEjBBQgfaQ5Hms3C-94" value="User Profile Service" style="rounded=0;whiteSpace=wrap;html=1;fontSize=16;" vertex="1" parent="1">
          <mxGeometry x="662.6800000000001" y="-678" width="120" height="60" as="geometry" />
        </mxCell>
        <mxCell id="ZzfddEjBBQgfaQ5Hms3C-102" value="" style="rounded=0;whiteSpace=wrap;html=1;fontSize=16;" vertex="1" parent="1">
          <mxGeometry x="972" y="-852" width="120" height="60" as="geometry" />
        </mxCell>
        <mxCell id="ZzfddEjBBQgfaQ5Hms3C-103" value="" style="rounded=0;whiteSpace=wrap;html=1;fontSize=16;" vertex="1" parent="1">
          <mxGeometry x="982" y="-842" width="120" height="60" as="geometry" />
        </mxCell>
        <mxCell id="ZzfddEjBBQgfaQ5Hms3C-104" value="Service Discovery" style="rounded=0;whiteSpace=wrap;html=1;fontSize=16;" vertex="1" parent="1">
          <mxGeometry x="992" y="-832" width="120" height="60" as="geometry" />
        </mxCell>
        <mxCell id="ZzfddEjBBQgfaQ5Hms3C-158" style="edgeStyle=orthogonalEdgeStyle;rounded=0;orthogonalLoop=1;jettySize=auto;html=1;entryX=0.417;entryY=0.983;entryDx=0;entryDy=0;entryPerimeter=0;fontSize=12;startSize=8;endSize=8;" edge="1" parent="1" source="ZzfddEjBBQgfaQ5Hms3C-120" target="ZzfddEjBBQgfaQ5Hms3C-156">
          <mxGeometry relative="1" as="geometry" />
        </mxCell>
        <mxCell id="ZzfddEjBBQgfaQ5Hms3C-178" style="edgeStyle=orthogonalEdgeStyle;rounded=0;orthogonalLoop=1;jettySize=auto;html=1;entryX=0;entryY=0.5;entryDx=0;entryDy=0;entryPerimeter=0;fontSize=12;startSize=8;endSize=8;" edge="1" parent="1" source="ZzfddEjBBQgfaQ5Hms3C-120" target="ZzfddEjBBQgfaQ5Hms3C-162">
          <mxGeometry relative="1" as="geometry" />
        </mxCell>
        <mxCell id="ZzfddEjBBQgfaQ5Hms3C-120" value="WS Server 1" style="rounded=0;whiteSpace=wrap;html=1;fontSize=16;" vertex="1" parent="1">
          <mxGeometry x="232" y="-255" width="120" height="60" as="geometry" />
        </mxCell>
        <mxCell id="ZzfddEjBBQgfaQ5Hms3C-121" value="WS Server 2" style="rounded=0;whiteSpace=wrap;html=1;fontSize=16;" vertex="1" parent="1">
          <mxGeometry x="232" y="-17" width="120" height="60" as="geometry" />
        </mxCell>
        <mxCell id="ZzfddEjBBQgfaQ5Hms3C-125" value="/login or /sign-up" style="edgeLabel;html=1;align=center;verticalAlign=middle;resizable=0;points=[];fontSize=16;" vertex="1" connectable="0" parent="1">
          <mxGeometry x="43.00117195162524" y="-791.9966680042703" as="geometry">
            <mxPoint x="-6" y="212" as="offset" />
          </mxGeometry>
        </mxCell>
        <mxCell id="ZzfddEjBBQgfaQ5Hms3C-135" value="" style="rounded=0;whiteSpace=wrap;html=1;fontSize=16;" vertex="1" parent="1">
          <mxGeometry x="703" y="-151" width="120" height="60" as="geometry" />
        </mxCell>
        <mxCell id="ZzfddEjBBQgfaQ5Hms3C-138" value="" style="rounded=0;whiteSpace=wrap;html=1;fontSize=16;" vertex="1" parent="1">
          <mxGeometry x="713" y="-141" width="120" height="60" as="geometry" />
        </mxCell>
        <mxCell id="ZzfddEjBBQgfaQ5Hms3C-163" style="edgeStyle=orthogonalEdgeStyle;rounded=0;orthogonalLoop=1;jettySize=auto;html=1;entryX=1;entryY=0.5;entryDx=0;entryDy=0;entryPerimeter=0;fontSize=12;startSize=8;endSize=8;" edge="1" parent="1" source="ZzfddEjBBQgfaQ5Hms3C-139" target="ZzfddEjBBQgfaQ5Hms3C-141">
          <mxGeometry relative="1" as="geometry">
            <Array as="points">
              <mxPoint x="775" y="13" />
            </Array>
          </mxGeometry>
        </mxCell>
        <mxCell id="ZzfddEjBBQgfaQ5Hms3C-177" style="edgeStyle=orthogonalEdgeStyle;rounded=0;orthogonalLoop=1;jettySize=auto;html=1;fontSize=12;startSize=8;endSize=8;" edge="1" parent="1" source="ZzfddEjBBQgfaQ5Hms3C-139">
          <mxGeometry relative="1" as="geometry">
            <mxPoint x="957" y="-101" as="targetPoint" />
          </mxGeometry>
        </mxCell>
        <mxCell id="ZzfddEjBBQgfaQ5Hms3C-189" style="edgeStyle=orthogonalEdgeStyle;rounded=0;orthogonalLoop=1;jettySize=auto;html=1;entryX=1;entryY=0.5;entryDx=0;entryDy=0;entryPerimeter=0;fontSize=12;startSize=8;endSize=8;" edge="1" parent="1" source="ZzfddEjBBQgfaQ5Hms3C-139" target="ZzfddEjBBQgfaQ5Hms3C-183">
          <mxGeometry relative="1" as="geometry">
            <Array as="points">
              <mxPoint x="775" y="243" />
            </Array>
          </mxGeometry>
        </mxCell>
        <mxCell id="ZzfddEjBBQgfaQ5Hms3C-139" value="Message Route Service" style="rounded=0;whiteSpace=wrap;html=1;fontSize=16;" vertex="1" parent="1">
          <mxGeometry x="723" y="-131" width="120" height="60" as="geometry" />
        </mxCell>
        <mxCell id="ZzfddEjBBQgfaQ5Hms3C-146" style="edgeStyle=orthogonalEdgeStyle;rounded=0;orthogonalLoop=1;jettySize=auto;html=1;entryX=1;entryY=0.5;entryDx=0;entryDy=0;fontSize=12;startSize=8;endSize=8;" edge="1" parent="1" source="ZzfddEjBBQgfaQ5Hms3C-141" target="ZzfddEjBBQgfaQ5Hms3C-121">
          <mxGeometry relative="1" as="geometry" />
        </mxCell>
        <mxCell id="ZzfddEjBBQgfaQ5Hms3C-141" value="MQ (KAFKA)" style="outlineConnect=0;dashed=0;verticalLabelPosition=bottom;verticalAlign=top;align=center;html=1;shape=mxgraph.aws3.queue;fillColor=#D9A741;gradientColor=none;fontSize=16;" vertex="1" parent="1">
          <mxGeometry x="465" y="-11" width="111" height="48" as="geometry" />
        </mxCell>
        <mxCell id="ZzfddEjBBQgfaQ5Hms3C-147" value="" style="rounded=0;whiteSpace=wrap;html=1;fontSize=16;" vertex="1" parent="1">
          <mxGeometry x="709" y="-501" width="120" height="60" as="geometry" />
        </mxCell>
        <mxCell id="ZzfddEjBBQgfaQ5Hms3C-148" value="" style="rounded=0;whiteSpace=wrap;html=1;fontSize=16;" vertex="1" parent="1">
          <mxGeometry x="719" y="-491" width="120" height="60" as="geometry" />
        </mxCell>
        <mxCell id="ZzfddEjBBQgfaQ5Hms3C-153" style="edgeStyle=orthogonalEdgeStyle;rounded=0;orthogonalLoop=1;jettySize=auto;html=1;entryX=0;entryY=0;entryDx=0;entryDy=52.5;entryPerimeter=0;fontSize=12;startSize=8;endSize=8;" edge="1" parent="1" source="ZzfddEjBBQgfaQ5Hms3C-149" target="ZzfddEjBBQgfaQ5Hms3C-152">
          <mxGeometry relative="1" as="geometry" />
        </mxCell>
        <mxCell id="ZzfddEjBBQgfaQ5Hms3C-149" value="Message Log Service" style="rounded=0;whiteSpace=wrap;html=1;fontSize=16;" vertex="1" parent="1">
          <mxGeometry x="729" y="-481" width="120" height="60" as="geometry" />
        </mxCell>
        <mxCell id="ZzfddEjBBQgfaQ5Hms3C-152" value="DB" style="shape=cylinder3;whiteSpace=wrap;html=1;boundedLbl=1;backgroundOutline=1;size=15;fontSize=16;" vertex="1" parent="1">
          <mxGeometry x="986" y="-504" width="60" height="80" as="geometry" />
        </mxCell>
        <mxCell id="ZzfddEjBBQgfaQ5Hms3C-154" value="" style="rounded=0;whiteSpace=wrap;html=1;fontSize=16;" vertex="1" parent="1">
          <mxGeometry x="222" y="-511" width="120" height="60" as="geometry" />
        </mxCell>
        <mxCell id="ZzfddEjBBQgfaQ5Hms3C-155" value="" style="rounded=0;whiteSpace=wrap;html=1;fontSize=16;" vertex="1" parent="1">
          <mxGeometry x="232" y="-501" width="120" height="60" as="geometry" />
        </mxCell>
        <mxCell id="ZzfddEjBBQgfaQ5Hms3C-156" value="ID Generation Service" style="rounded=0;whiteSpace=wrap;html=1;fontSize=16;" vertex="1" parent="1">
          <mxGeometry x="242" y="-491" width="120" height="60" as="geometry" />
        </mxCell>
        <mxCell id="ZzfddEjBBQgfaQ5Hms3C-179" style="edgeStyle=orthogonalEdgeStyle;rounded=0;orthogonalLoop=1;jettySize=auto;html=1;entryX=0.558;entryY=0;entryDx=0;entryDy=0;entryPerimeter=0;fontSize=12;startSize=8;endSize=8;" edge="1" parent="1" source="ZzfddEjBBQgfaQ5Hms3C-162" target="ZzfddEjBBQgfaQ5Hms3C-135">
          <mxGeometry relative="1" as="geometry" />
        </mxCell>
        <mxCell id="ZzfddEjBBQgfaQ5Hms3C-180" style="edgeStyle=orthogonalEdgeStyle;rounded=0;orthogonalLoop=1;jettySize=auto;html=1;fontSize=12;startSize=8;endSize=8;" edge="1" parent="1" source="ZzfddEjBBQgfaQ5Hms3C-162">
          <mxGeometry relative="1" as="geometry">
            <mxPoint x="770" y="-414" as="targetPoint" />
          </mxGeometry>
        </mxCell>
        <mxCell id="ZzfddEjBBQgfaQ5Hms3C-162" value="MQ (KAFKA)" style="outlineConnect=0;dashed=0;verticalLabelPosition=bottom;verticalAlign=top;align=center;html=1;shape=mxgraph.aws3.queue;fillColor=#D9A741;gradientColor=none;fontSize=16;" vertex="1" parent="1">
          <mxGeometry x="467" y="-249" width="111" height="48" as="geometry" />
        </mxCell>
        <mxCell id="ZzfddEjBBQgfaQ5Hms3C-169" value="DB" style="shape=cylinder3;whiteSpace=wrap;html=1;boundedLbl=1;backgroundOutline=1;size=15;fontSize=16;" vertex="1" parent="1">
          <mxGeometry x="976" y="-688" width="60" height="80" as="geometry" />
        </mxCell>
        <mxCell id="ZzfddEjBBQgfaQ5Hms3C-172" value="Topic: Messages" style="text;strokeColor=none;fillColor=none;html=1;align=left;verticalAlign=middle;whiteSpace=wrap;rounded=0;fontSize=16;" vertex="1" parent="1">
          <mxGeometry x="465" y="-279" width="154" height="30" as="geometry" />
        </mxCell>
        <mxCell id="ZzfddEjBBQgfaQ5Hms3C-173" value="Topic: B" style="text;strokeColor=none;fillColor=none;html=1;align=left;verticalAlign=middle;whiteSpace=wrap;rounded=0;fontSize=16;" vertex="1" parent="1">
          <mxGeometry x="465" y="-47" width="154" height="30" as="geometry" />
        </mxCell>
        <mxCell id="ZzfddEjBBQgfaQ5Hms3C-174" value="" style="rounded=0;whiteSpace=wrap;html=1;fontSize=16;" vertex="1" parent="1">
          <mxGeometry x="965" y="-141" width="120" height="60" as="geometry" />
        </mxCell>
        <mxCell id="ZzfddEjBBQgfaQ5Hms3C-175" value="" style="rounded=0;whiteSpace=wrap;html=1;fontSize=16;" vertex="1" parent="1">
          <mxGeometry x="975" y="-131" width="120" height="60" as="geometry" />
        </mxCell>
        <mxCell id="ZzfddEjBBQgfaQ5Hms3C-176" value="Notification Service" style="rounded=0;whiteSpace=wrap;html=1;fontSize=16;" vertex="1" parent="1">
          <mxGeometry x="985" y="-121" width="120" height="60" as="geometry" />
        </mxCell>
        <mxCell id="ZzfddEjBBQgfaQ5Hms3C-198" value="/update heartbeat" style="edgeStyle=none;rounded=0;orthogonalLoop=1;jettySize=auto;html=1;entryX=0.589;entryY=0.022;entryDx=0;entryDy=0;entryPerimeter=0;fontSize=12;startSize=8;endSize=8;" edge="1" parent="1" source="ZzfddEjBBQgfaQ5Hms3C-181" target="ZzfddEjBBQgfaQ5Hms3C-192">
          <mxGeometry relative="1" as="geometry" />
        </mxCell>
        <mxCell id="ZzfddEjBBQgfaQ5Hms3C-181" value="WS Server 3" style="rounded=0;whiteSpace=wrap;html=1;fontSize=16;" vertex="1" parent="1">
          <mxGeometry x="232" y="213" width="120" height="60" as="geometry" />
        </mxCell>
        <mxCell id="ZzfddEjBBQgfaQ5Hms3C-182" style="edgeStyle=orthogonalEdgeStyle;rounded=0;orthogonalLoop=1;jettySize=auto;html=1;entryX=1;entryY=0.5;entryDx=0;entryDy=0;fontSize=12;startSize=8;endSize=8;" edge="1" parent="1" source="ZzfddEjBBQgfaQ5Hms3C-183" target="ZzfddEjBBQgfaQ5Hms3C-181">
          <mxGeometry relative="1" as="geometry" />
        </mxCell>
        <mxCell id="ZzfddEjBBQgfaQ5Hms3C-183" value="MQ (KAFKA)" style="outlineConnect=0;dashed=0;verticalLabelPosition=bottom;verticalAlign=top;align=center;html=1;shape=mxgraph.aws3.queue;fillColor=#D9A741;gradientColor=none;fontSize=16;" vertex="1" parent="1">
          <mxGeometry x="465" y="219" width="111" height="48" as="geometry" />
        </mxCell>
        <mxCell id="ZzfddEjBBQgfaQ5Hms3C-184" value="Topic: C" style="text;strokeColor=none;fillColor=none;html=1;align=left;verticalAlign=middle;whiteSpace=wrap;rounded=0;fontSize=16;" vertex="1" parent="1">
          <mxGeometry x="465" y="183" width="154" height="30" as="geometry" />
        </mxCell>
        <mxCell id="ZzfddEjBBQgfaQ5Hms3C-186" style="rounded=0;orthogonalLoop=1;jettySize=auto;html=1;entryX=0;entryY=0.5;entryDx=0;entryDy=0;fontSize=12;startSize=8;endSize=8;" edge="1" parent="1" source="ZzfddEjBBQgfaQ5Hms3C-185" target="ZzfddEjBBQgfaQ5Hms3C-181">
          <mxGeometry relative="1" as="geometry" />
        </mxCell>
        <mxCell id="ZzfddEjBBQgfaQ5Hms3C-187" value="/wss" style="edgeLabel;html=1;align=center;verticalAlign=middle;resizable=0;points=[];fontSize=16;" vertex="1" connectable="0" parent="ZzfddEjBBQgfaQ5Hms3C-186">
          <mxGeometry x="-0.1236" y="2" relative="1" as="geometry">
            <mxPoint as="offset" />
          </mxGeometry>
        </mxCell>
        <mxCell id="ZzfddEjBBQgfaQ5Hms3C-185" value="User C" style="outlineConnect=0;dashed=0;verticalLabelPosition=bottom;verticalAlign=top;align=center;html=1;shape=mxgraph.aws3.mobile_client;fillColor=#D2D3D3;gradientColor=none;fontSize=16;" vertex="1" parent="1">
          <mxGeometry x="-112" y="-184" width="40.5" height="63" as="geometry" />
        </mxCell>
        <mxCell id="ZzfddEjBBQgfaQ5Hms3C-192" value="" style="rounded=0;whiteSpace=wrap;html=1;fontSize=16;" vertex="1" parent="1">
          <mxGeometry x="224" y="447" width="120" height="60" as="geometry" />
        </mxCell>
        <mxCell id="ZzfddEjBBQgfaQ5Hms3C-193" value="" style="rounded=0;whiteSpace=wrap;html=1;fontSize=16;" vertex="1" parent="1">
          <mxGeometry x="234" y="457" width="120" height="60" as="geometry" />
        </mxCell>
        <mxCell id="ZzfddEjBBQgfaQ5Hms3C-195" style="edgeStyle=orthogonalEdgeStyle;rounded=0;orthogonalLoop=1;jettySize=auto;html=1;entryX=0.75;entryY=1;entryDx=0;entryDy=0;fontSize=12;startSize=8;endSize=8;" edge="1" parent="1" source="ZzfddEjBBQgfaQ5Hms3C-194" target="ZzfddEjBBQgfaQ5Hms3C-139">
          <mxGeometry relative="1" as="geometry" />
        </mxCell>
        <mxCell id="ZzfddEjBBQgfaQ5Hms3C-194" value="Presence Servers" style="rounded=0;whiteSpace=wrap;html=1;fontSize=16;" vertex="1" parent="1">
          <mxGeometry x="244" y="467" width="120" height="60" as="geometry" />
        </mxCell>
      </root>
    </mxGraphModel>
  </diagram>
</mxfile>
